<svg width="330" height="330" viewBox="0 0 330 330" fill="none" xmlns="http://www.w3.org/2000/svg">
<path d="M36.6667 330C26.5833 330 17.9544 326.413 10.78 319.238C3.60556 312.064 0.0122222 303.429 0 293.333V36.6667C0 26.5833 3.59333 17.9544 10.78 10.78C17.9667 3.60556 26.5956 0.0122222 36.6667 0H293.333C303.417 0 312.052 3.59333 319.238 10.78C326.425 17.9667 330.012 26.5956 330 36.6667V293.333C330 303.417 326.413 312.052 319.238 319.238C312.064 326.425 303.429 330.012 293.333 330H36.6667ZM55 256.667H275L206.25 165L151.25 238.333L110 183.333L55 256.667Z" fill="white"/>
</svg>
