<svg width="41" height="41" viewBox="0 0 41 41" fill="none" xmlns="http://www.w3.org/2000/svg">
<path d="M2.16357 34.4163C2.16357 31.9852 3.12932 29.6536 4.84836 27.9346C6.5674 26.2156 8.89892 25.2498 11.33 25.2498H29.6629C32.094 25.2498 34.4255 26.2156 36.1445 27.9346C37.8636 29.6536 38.8293 31.9852 38.8293 34.4163C38.8293 35.6318 38.3464 36.7976 37.4869 37.6571C36.6274 38.5166 35.4616 38.9995 34.2461 38.9995H6.74679C5.53125 38.9995 4.36549 38.5166 3.50597 37.6571C2.64645 36.7976 2.16357 35.6318 2.16357 34.4163Z" stroke="#F6811E" stroke-width="3" stroke-linejoin="round"/>
<path d="M20.4965 16.0834C24.2933 16.0834 27.3713 13.0054 27.3713 9.20857C27.3713 5.4117 24.2933 2.33374 20.4965 2.33374C16.6996 2.33374 13.6216 5.4117 13.6216 9.20857C13.6216 13.0054 16.6996 16.0834 20.4965 16.0834Z" stroke="#F6811E" stroke-width="3"/>
</svg>
